<svg width="64" height="64" viewBox="0 0 64 64" fill="none" xmlns="http://www.w3.org/2000/svg">
<rect x="0" y="0" width="1" height="1" shape-rendering="crispEdges" fill="none"/>
,<rect x="1" y="0" width="8" height="1" shape-rendering="crispEdges" fill="#2762dc"/>
,<rect x="9" y="0" width="1" height="1" shape-rendering="crispEdges" fill="none"/>
<rect x="0" y="1" width="10" height="1" shape-rendering="crispEdges" fill="#2762dc"/>
<rect x="0" y="2" width="2" height="1" shape-rendering="crispEdges" fill="#2762dc"/>
,<rect x="2" y="2" width="1" height="1" shape-rendering="crispEdges" fill="#ac7303"/>
,<rect x="3" y="2" width="4" height="1" shape-rendering="crispEdges" fill="#2762dc"/>
,<rect x="7" y="2" width="1" height="1" shape-rendering="crispEdges" fill="#ffc24a"/>
,<rect x="8" y="2" width="2" height="1" shape-rendering="crispEdges" fill="#2762dc"/>
<rect x="0" y="3" width="1" height="1" shape-rendering="crispEdges" fill="none"/>
,<rect x="1" y="3" width="6" height="1" shape-rendering="crispEdges" fill="#2762dc"/>
,<rect x="7" y="3" width="1" height="1" shape-rendering="crispEdges" fill="#ffc24a"/>
,<rect x="8" y="3" width="1" height="1" shape-rendering="crispEdges" fill="#2762dc"/>
,<rect x="9" y="3" width="1" height="1" shape-rendering="crispEdges" fill="none"/>
<rect x="0" y="4" width="1" height="1" shape-rendering="crispEdges" fill="none"/>
,<rect x="1" y="4" width="8" height="1" shape-rendering="crispEdges" fill="#2762dc"/>
,<rect x="9" y="4" width="1" height="1" shape-rendering="crispEdges" fill="none"/>
<rect x="0" y="5" width="1" height="1" shape-rendering="crispEdges" fill="none"/>
,<rect x="1" y="5" width="8" height="1" shape-rendering="crispEdges" fill="#2762dc"/>
,<rect x="9" y="5" width="1" height="1" shape-rendering="crispEdges" fill="none"/>
<rect x="0" y="6" width="1" height="1" shape-rendering="crispEdges" fill="none"/>
,<rect x="1" y="6" width="8" height="1" shape-rendering="crispEdges" fill="#2762dc"/>
,<rect x="9" y="6" width="1" height="1" shape-rendering="crispEdges" fill="none"/>
<rect x="0" y="7" width="1" height="1" shape-rendering="crispEdges" fill="none"/>
,<rect x="1" y="7" width="8" height="1" shape-rendering="crispEdges" fill="#2762dc"/>
,<rect x="9" y="7" width="1" height="1" shape-rendering="crispEdges" fill="none"/>
<rect x="0" y="8" width="1" height="1" shape-rendering="crispEdges" fill="none"/>
,<rect x="1" y="8" width="8" height="1" shape-rendering="crispEdges" fill="#2762dc"/>
,<rect x="9" y="8" width="1" height="1" shape-rendering="crispEdges" fill="none"/>
</svg>