<svg width="64" height="64" viewBox="0 0 64 64" fill="none" xmlns="http://www.w3.org/2000/svg">
<rect width="64" height="64" fill="white"/>
<rect x="28" y="35" width="8" height="9" fill="#2762DC"/>
<rect x="27" y="36" width="1" height="1" fill="#2762DC"/>
<rect x="36" y="36" width="1" height="1" fill="#2762DC"/>
<rect x="36" y="37" width="1" height="1" fill="#2762DC"/>
<rect x="27" y="37" width="1" height="1" fill="#2762DC"/>
<rect x="34" y="37" width="1" height="1" fill="#FFC24A"/>
<rect x="34" y="38" width="1" height="1" fill="#FFC24A"/>
<rect x="29" y="37" width="1" height="1" fill="#AC7303"/>
<rect x="35" y="44" width="1" height="1" fill="#F0CFB8"/>
<rect x="36" y="44" width="1" height="1" fill="#F0CFB8"/>
<rect x="36" y="38" width="1" height="7" fill="#F0CFB8"/>
<rect x="28" y="44" width="1" height="1" fill="#F0CFB8"/>
<rect x="27" y="38" width="1" height="7" fill="#F0CFB8"/>
<rect x="23" y="19" width="18" height="14" fill="#F0CFB8"/>
<rect x="21" y="27" width="2" height="3" fill="#EAB895"/>
<rect x="41" y="27" width="2" height="3" fill="#EAB895"/>
<rect x="30" y="33" width="4" height="3" fill="#EAB895"/>
<rect x="31" y="29" width="2" height="2" fill="#F4E6DB"/>
<rect x="30" y="29" width="1" height="1" fill="#F4E6DB"/>
<rect x="33" y="29" width="1" height="1" fill="#F4E6DB"/>
<rect x="33" y="28" width="1" height="1" fill="#F4E6DB"/>
<rect x="31" y="28" width="1" height="1" fill="#F4E6DB"/>
<rect x="32" y="28" width="1" height="1" fill="#F4E6DB"/>
<rect x="30" y="28" width="1" height="1" fill="#F4E6DB"/>
<rect x="24" y="24" width="5" height="3" fill="#F4E6DB"/>
<rect x="35" y="24" width="5" height="3" fill="#F4E6DB"/>
<rect x="26" y="25" width="1" height="1" fill="#494747"/>
<rect x="27" y="25" width="1" height="1" fill="#494747"/>
<rect x="27" y="26" width="1" height="1" fill="#494747"/>
<rect x="26" y="26" width="1" height="1" fill="#494747"/>
<rect x="36" y="25" width="1" height="1" fill="#494747"/>
<rect x="37" y="25" width="1" height="1" fill="#494747"/>
<rect x="37" y="26" width="1" height="1" fill="#494747"/>
<rect x="36" y="26" width="1" height="1" fill="#494747"/>
<rect x="22" y="21" width="1" height="1" fill="black"/>
<rect x="22" y="22" width="1" height="1" fill="black"/>
<rect x="22" y="20" width="1" height="1" fill="black"/>
<rect x="22" y="19" width="1" height="1" fill="black"/>
<rect x="22" y="17" width="20" height="2" fill="black"/>
<rect x="23" y="16" width="18" height="1" fill="black"/>
<rect x="25" y="15" width="15" height="1" fill="black"/>
<rect x="26" y="14" width="13" height="1" fill="black"/>
<rect x="33" y="12" width="4" height="1" fill="black"/>
<rect x="27" y="13" width="11" height="1" fill="black"/>
<rect x="41" y="19" width="1" height="1" fill="black"/>
<rect x="41" y="20" width="1" height="1" fill="black"/>
<rect x="41" y="21" width="1" height="1" fill="black"/>
<rect x="41" y="22" width="1" height="1" fill="black"/>
<rect x="32" y="11" width="4" height="1" fill="black"/>
</svg>
