<svg width="64" height="64" viewBox="0 0 64 64" fill="none" xmlns="http://www.w3.org/2000/svg">
<rect x="0" y="0" width="64" height="1" shape-rendering="crispEdges" fill="#ffffff"/>
<rect x="0" y="1" width="64" height="1" shape-rendering="crispEdges" fill="#ffffff"/>
<rect x="0" y="2" width="64" height="1" shape-rendering="crispEdges" fill="#ffffff"/>
<rect x="0" y="3" width="64" height="1" shape-rendering="crispEdges" fill="#ffffff"/>
<rect x="0" y="4" width="64" height="1" shape-rendering="crispEdges" fill="#ffffff"/>
<rect x="0" y="5" width="64" height="1" shape-rendering="crispEdges" fill="#ffffff"/>
<rect x="0" y="6" width="64" height="1" shape-rendering="crispEdges" fill="#ffffff"/>
<rect x="0" y="7" width="64" height="1" shape-rendering="crispEdges" fill="#ffffff"/>
<rect x="0" y="8" width="64" height="1" shape-rendering="crispEdges" fill="#ffffff"/>
<rect x="0" y="9" width="64" height="1" shape-rendering="crispEdges" fill="#ffffff"/>
<rect x="0" y="10" width="64" height="1" shape-rendering="crispEdges" fill="#ffffff"/>
<rect x="0" y="11" width="32" height="1" shape-rendering="crispEdges" fill="#ffffff"/>
<rect x="32" y="11" width="4" height="1" shape-rendering="crispEdges" fill="#000000"/>
<rect x="36" y="11" width="28" height="1" shape-rendering="crispEdges" fill="#ffffff"/>
<rect x="0" y="12" width="33" height="1" shape-rendering="crispEdges" fill="#ffffff"/>
<rect x="33" y="12" width="4" height="1" shape-rendering="crispEdges" fill="#000000"/>
<rect x="37" y="12" width="27" height="1" shape-rendering="crispEdges" fill="#ffffff"/>
<rect x="0" y="13" width="27" height="1" shape-rendering="crispEdges" fill="#ffffff"/>
<rect x="27" y="13" width="11" height="1" shape-rendering="crispEdges" fill="#000000"/>
<rect x="38" y="13" width="26" height="1" shape-rendering="crispEdges" fill="#ffffff"/>
<rect x="0" y="14" width="26" height="1" shape-rendering="crispEdges" fill="#ffffff"/>
<rect x="26" y="14" width="13" height="1" shape-rendering="crispEdges" fill="#000000"/>
<rect x="39" y="14" width="25" height="1" shape-rendering="crispEdges" fill="#ffffff"/>
<rect x="0" y="15" width="25" height="1" shape-rendering="crispEdges" fill="#ffffff"/>
<rect x="25" y="15" width="15" height="1" shape-rendering="crispEdges" fill="#000000"/>
<rect x="40" y="15" width="24" height="1" shape-rendering="crispEdges" fill="#ffffff"/>
<rect x="0" y="16" width="23" height="1" shape-rendering="crispEdges" fill="#ffffff"/>
<rect x="23" y="16" width="18" height="1" shape-rendering="crispEdges" fill="#000000"/>
<rect x="41" y="16" width="23" height="1" shape-rendering="crispEdges" fill="#ffffff"/>
<rect x="0" y="17" width="22" height="1" shape-rendering="crispEdges" fill="#ffffff"/>
<rect x="22" y="17" width="20" height="1" shape-rendering="crispEdges" fill="#000000"/>
<rect x="42" y="17" width="22" height="1" shape-rendering="crispEdges" fill="#ffffff"/>
<rect x="0" y="18" width="22" height="1" shape-rendering="crispEdges" fill="#ffffff"/>
<rect x="22" y="18" width="20" height="1" shape-rendering="crispEdges" fill="#000000"/>
<rect x="42" y="18" width="22" height="1" shape-rendering="crispEdges" fill="#ffffff"/>
<rect x="0" y="19" width="22" height="1" shape-rendering="crispEdges" fill="#ffffff"/>
<rect x="22" y="19" width="1" height="1" shape-rendering="crispEdges" fill="#000000"/>
<rect x="23" y="19" width="18" height="1" shape-rendering="crispEdges" fill="#f0cfb8"/>
<rect x="41" y="19" width="1" height="1" shape-rendering="crispEdges" fill="#000000"/>
<rect x="42" y="19" width="22" height="1" shape-rendering="crispEdges" fill="#ffffff"/>
<rect x="0" y="20" width="22" height="1" shape-rendering="crispEdges" fill="#ffffff"/>
<rect x="22" y="20" width="1" height="1" shape-rendering="crispEdges" fill="#000000"/>
<rect x="23" y="20" width="18" height="1" shape-rendering="crispEdges" fill="#f0cfb8"/>
<rect x="41" y="20" width="1" height="1" shape-rendering="crispEdges" fill="#000000"/>
<rect x="42" y="20" width="22" height="1" shape-rendering="crispEdges" fill="#ffffff"/>
<rect x="0" y="21" width="22" height="1" shape-rendering="crispEdges" fill="#ffffff"/>
<rect x="22" y="21" width="1" height="1" shape-rendering="crispEdges" fill="#000000"/>
<rect x="23" y="21" width="18" height="1" shape-rendering="crispEdges" fill="#f0cfb8"/>
<rect x="41" y="21" width="1" height="1" shape-rendering="crispEdges" fill="#000000"/>
<rect x="42" y="21" width="22" height="1" shape-rendering="crispEdges" fill="#ffffff"/>
<rect x="0" y="22" width="22" height="1" shape-rendering="crispEdges" fill="#ffffff"/>
<rect x="22" y="22" width="1" height="1" shape-rendering="crispEdges" fill="#000000"/>
<rect x="23" y="22" width="18" height="1" shape-rendering="crispEdges" fill="#f0cfb8"/>
<rect x="41" y="22" width="1" height="1" shape-rendering="crispEdges" fill="#000000"/>
<rect x="42" y="22" width="22" height="1" shape-rendering="crispEdges" fill="#ffffff"/>
<rect x="0" y="23" width="23" height="1" shape-rendering="crispEdges" fill="#ffffff"/>
<rect x="23" y="23" width="18" height="1" shape-rendering="crispEdges" fill="#f0cfb8"/>
<rect x="41" y="23" width="23" height="1" shape-rendering="crispEdges" fill="#ffffff"/>
<rect x="0" y="24" width="23" height="1" shape-rendering="crispEdges" fill="#ffffff"/>
<rect x="23" y="24" width="1" height="1" shape-rendering="crispEdges" fill="#f0cfb8"/>
<rect x="24" y="24" width="5" height="1" shape-rendering="crispEdges" fill="#f4e6db"/>
<rect x="29" y="24" width="6" height="1" shape-rendering="crispEdges" fill="#f0cfb8"/>
<rect x="35" y="24" width="5" height="1" shape-rendering="crispEdges" fill="#f4e6db"/>
<rect x="40" y="24" width="1" height="1" shape-rendering="crispEdges" fill="#f0cfb8"/>
<rect x="41" y="24" width="23" height="1" shape-rendering="crispEdges" fill="#ffffff"/>
<rect x="0" y="25" width="23" height="1" shape-rendering="crispEdges" fill="#ffffff"/>
<rect x="23" y="25" width="1" height="1" shape-rendering="crispEdges" fill="#f0cfb8"/>
<rect x="24" y="25" width="2" height="1" shape-rendering="crispEdges" fill="#f4e6db"/>
<rect x="26" y="25" width="2" height="1" shape-rendering="crispEdges" fill="#494747"/>
<rect x="28" y="25" width="1" height="1" shape-rendering="crispEdges" fill="#f4e6db"/>
<rect x="29" y="25" width="6" height="1" shape-rendering="crispEdges" fill="#f0cfb8"/>
<rect x="35" y="25" width="1" height="1" shape-rendering="crispEdges" fill="#f4e6db"/>
<rect x="36" y="25" width="2" height="1" shape-rendering="crispEdges" fill="#494747"/>
<rect x="38" y="25" width="2" height="1" shape-rendering="crispEdges" fill="#f4e6db"/>
<rect x="40" y="25" width="1" height="1" shape-rendering="crispEdges" fill="#f0cfb8"/>
<rect x="41" y="25" width="23" height="1" shape-rendering="crispEdges" fill="#ffffff"/>
<rect x="0" y="26" width="23" height="1" shape-rendering="crispEdges" fill="#ffffff"/>
<rect x="23" y="26" width="1" height="1" shape-rendering="crispEdges" fill="#f0cfb8"/>
<rect x="24" y="26" width="2" height="1" shape-rendering="crispEdges" fill="#f4e6db"/>
<rect x="26" y="26" width="2" height="1" shape-rendering="crispEdges" fill="#494747"/>
<rect x="28" y="26" width="1" height="1" shape-rendering="crispEdges" fill="#f4e6db"/>
<rect x="29" y="26" width="6" height="1" shape-rendering="crispEdges" fill="#f0cfb8"/>
<rect x="35" y="26" width="1" height="1" shape-rendering="crispEdges" fill="#f4e6db"/>
<rect x="36" y="26" width="2" height="1" shape-rendering="crispEdges" fill="#494747"/>
<rect x="38" y="26" width="2" height="1" shape-rendering="crispEdges" fill="#f4e6db"/>
<rect x="40" y="26" width="1" height="1" shape-rendering="crispEdges" fill="#f0cfb8"/>
<rect x="41" y="26" width="23" height="1" shape-rendering="crispEdges" fill="#ffffff"/>
<rect x="0" y="27" width="21" height="1" shape-rendering="crispEdges" fill="#ffffff"/>
<rect x="21" y="27" width="2" height="1" shape-rendering="crispEdges" fill="#eab895"/>
<rect x="23" y="27" width="18" height="1" shape-rendering="crispEdges" fill="#f0cfb8"/>
<rect x="41" y="27" width="2" height="1" shape-rendering="crispEdges" fill="#eab895"/>
<rect x="43" y="27" width="21" height="1" shape-rendering="crispEdges" fill="#ffffff"/>
<rect x="0" y="28" width="21" height="1" shape-rendering="crispEdges" fill="#ffffff"/>
<rect x="21" y="28" width="2" height="1" shape-rendering="crispEdges" fill="#eab895"/>
<rect x="23" y="28" width="7" height="1" shape-rendering="crispEdges" fill="#f0cfb8"/>
<rect x="30" y="28" width="4" height="1" shape-rendering="crispEdges" fill="#f4e6db"/>
<rect x="34" y="28" width="7" height="1" shape-rendering="crispEdges" fill="#f0cfb8"/>
<rect x="41" y="28" width="2" height="1" shape-rendering="crispEdges" fill="#eab895"/>
<rect x="43" y="28" width="21" height="1" shape-rendering="crispEdges" fill="#ffffff"/>
<rect x="0" y="29" width="21" height="1" shape-rendering="crispEdges" fill="#ffffff"/>
<rect x="21" y="29" width="2" height="1" shape-rendering="crispEdges" fill="#eab895"/>
<rect x="23" y="29" width="7" height="1" shape-rendering="crispEdges" fill="#f0cfb8"/>
<rect x="30" y="29" width="4" height="1" shape-rendering="crispEdges" fill="#f4e6db"/>
<rect x="34" y="29" width="7" height="1" shape-rendering="crispEdges" fill="#f0cfb8"/>
<rect x="41" y="29" width="2" height="1" shape-rendering="crispEdges" fill="#eab895"/>
<rect x="43" y="29" width="21" height="1" shape-rendering="crispEdges" fill="#ffffff"/>
<rect x="0" y="30" width="23" height="1" shape-rendering="crispEdges" fill="#ffffff"/>
<rect x="23" y="30" width="8" height="1" shape-rendering="crispEdges" fill="#f0cfb8"/>
<rect x="31" y="30" width="2" height="1" shape-rendering="crispEdges" fill="#f4e6db"/>
<rect x="33" y="30" width="8" height="1" shape-rendering="crispEdges" fill="#f0cfb8"/>
<rect x="41" y="30" width="23" height="1" shape-rendering="crispEdges" fill="#ffffff"/>
<rect x="0" y="31" width="23" height="1" shape-rendering="crispEdges" fill="#ffffff"/>
<rect x="23" y="31" width="18" height="1" shape-rendering="crispEdges" fill="#f0cfb8"/>
<rect x="41" y="31" width="23" height="1" shape-rendering="crispEdges" fill="#ffffff"/>
<rect x="0" y="32" width="23" height="1" shape-rendering="crispEdges" fill="#ffffff"/>
<rect x="23" y="32" width="18" height="1" shape-rendering="crispEdges" fill="#f0cfb8"/>
<rect x="41" y="32" width="23" height="1" shape-rendering="crispEdges" fill="#ffffff"/>
<rect x="0" y="33" width="30" height="1" shape-rendering="crispEdges" fill="#ffffff"/>
<rect x="30" y="33" width="4" height="1" shape-rendering="crispEdges" fill="#eab895"/>
<rect x="34" y="33" width="30" height="1" shape-rendering="crispEdges" fill="#ffffff"/>
<rect x="0" y="34" width="30" height="1" shape-rendering="crispEdges" fill="#ffffff"/>
<rect x="30" y="34" width="4" height="1" shape-rendering="crispEdges" fill="#eab895"/>
<rect x="34" y="34" width="30" height="1" shape-rendering="crispEdges" fill="#ffffff"/>
<rect x="0" y="35" width="28" height="1" shape-rendering="crispEdges" fill="#ffffff"/>
<rect x="28" y="35" width="2" height="1" shape-rendering="crispEdges" fill="#2762dc"/>
<rect x="30" y="35" width="4" height="1" shape-rendering="crispEdges" fill="#eab895"/>
<rect x="34" y="35" width="2" height="1" shape-rendering="crispEdges" fill="#2762dc"/>
<rect x="36" y="35" width="28" height="1" shape-rendering="crispEdges" fill="#ffffff"/>
<rect x="0" y="36" width="27" height="1" shape-rendering="crispEdges" fill="#ffffff"/>
<rect x="27" y="36" width="10" height="1" shape-rendering="crispEdges" fill="#2762dc"/>
<rect x="37" y="36" width="27" height="1" shape-rendering="crispEdges" fill="#ffffff"/>
<rect x="0" y="37" width="27" height="1" shape-rendering="crispEdges" fill="#ffffff"/>
<rect x="27" y="37" width="2" height="1" shape-rendering="crispEdges" fill="#2762dc"/>
<rect x="29" y="37" width="1" height="1" shape-rendering="crispEdges" fill="#ac7303"/>
<rect x="30" y="37" width="4" height="1" shape-rendering="crispEdges" fill="#2762dc"/>
<rect x="34" y="37" width="1" height="1" shape-rendering="crispEdges" fill="#ffc24a"/>
<rect x="35" y="37" width="2" height="1" shape-rendering="crispEdges" fill="#2762dc"/>
<rect x="37" y="37" width="27" height="1" shape-rendering="crispEdges" fill="#ffffff"/>
<rect x="0" y="38" width="27" height="1" shape-rendering="crispEdges" fill="#ffffff"/>
<rect x="27" y="38" width="1" height="1" shape-rendering="crispEdges" fill="#f0cfb8"/>
<rect x="28" y="38" width="6" height="1" shape-rendering="crispEdges" fill="#2762dc"/>
<rect x="34" y="38" width="1" height="1" shape-rendering="crispEdges" fill="#ffc24a"/>
<rect x="35" y="38" width="1" height="1" shape-rendering="crispEdges" fill="#2762dc"/>
<rect x="36" y="38" width="1" height="1" shape-rendering="crispEdges" fill="#f0cfb8"/>
<rect x="37" y="38" width="27" height="1" shape-rendering="crispEdges" fill="#ffffff"/>
<rect x="0" y="39" width="27" height="1" shape-rendering="crispEdges" fill="#ffffff"/>
<rect x="27" y="39" width="1" height="1" shape-rendering="crispEdges" fill="#f0cfb8"/>
<rect x="28" y="39" width="8" height="1" shape-rendering="crispEdges" fill="#2762dc"/>
<rect x="36" y="39" width="1" height="1" shape-rendering="crispEdges" fill="#f0cfb8"/>
<rect x="37" y="39" width="27" height="1" shape-rendering="crispEdges" fill="#ffffff"/>
<rect x="0" y="40" width="27" height="1" shape-rendering="crispEdges" fill="#ffffff"/>
<rect x="27" y="40" width="1" height="1" shape-rendering="crispEdges" fill="#f0cfb8"/>
<rect x="28" y="40" width="8" height="1" shape-rendering="crispEdges" fill="#2762dc"/>
<rect x="36" y="40" width="1" height="1" shape-rendering="crispEdges" fill="#f0cfb8"/>
<rect x="37" y="40" width="27" height="1" shape-rendering="crispEdges" fill="#ffffff"/>
<rect x="0" y="41" width="27" height="1" shape-rendering="crispEdges" fill="#ffffff"/>
<rect x="27" y="41" width="1" height="1" shape-rendering="crispEdges" fill="#f0cfb8"/>
<rect x="28" y="41" width="8" height="1" shape-rendering="crispEdges" fill="#2762dc"/>
<rect x="36" y="41" width="1" height="1" shape-rendering="crispEdges" fill="#f0cfb8"/>
<rect x="37" y="41" width="27" height="1" shape-rendering="crispEdges" fill="#ffffff"/>
<rect x="0" y="42" width="27" height="1" shape-rendering="crispEdges" fill="#ffffff"/>
<rect x="27" y="42" width="1" height="1" shape-rendering="crispEdges" fill="#f0cfb8"/>
<rect x="28" y="42" width="8" height="1" shape-rendering="crispEdges" fill="#2762dc"/>
<rect x="36" y="42" width="1" height="1" shape-rendering="crispEdges" fill="#f0cfb8"/>
<rect x="37" y="42" width="27" height="1" shape-rendering="crispEdges" fill="#ffffff"/>
<rect x="0" y="43" width="27" height="1" shape-rendering="crispEdges" fill="#ffffff"/>
<rect x="27" y="43" width="1" height="1" shape-rendering="crispEdges" fill="#f0cfb8"/>
<rect x="28" y="43" width="8" height="1" shape-rendering="crispEdges" fill="#2762dc"/>
<rect x="36" y="43" width="1" height="1" shape-rendering="crispEdges" fill="#f0cfb8"/>
<rect x="37" y="43" width="27" height="1" shape-rendering="crispEdges" fill="#ffffff"/>
<rect x="0" y="44" width="27" height="1" shape-rendering="crispEdges" fill="#ffffff"/>
<rect x="27" y="44" width="2" height="1" shape-rendering="crispEdges" fill="#f0cfb8"/>
<rect x="29" y="44" width="6" height="1" shape-rendering="crispEdges" fill="#ffffff"/>
<rect x="35" y="44" width="2" height="1" shape-rendering="crispEdges" fill="#f0cfb8"/>
<rect x="37" y="44" width="27" height="1" shape-rendering="crispEdges" fill="#ffffff"/>
<rect x="0" y="45" width="64" height="1" shape-rendering="crispEdges" fill="#ffffff"/>
<rect x="0" y="46" width="64" height="1" shape-rendering="crispEdges" fill="#ffffff"/>
<rect x="0" y="47" width="64" height="1" shape-rendering="crispEdges" fill="#ffffff"/>
<rect x="0" y="48" width="64" height="1" shape-rendering="crispEdges" fill="#ffffff"/>
<rect x="0" y="49" width="64" height="1" shape-rendering="crispEdges" fill="#ffffff"/>
<rect x="0" y="50" width="64" height="1" shape-rendering="crispEdges" fill="#ffffff"/>
<rect x="0" y="51" width="64" height="1" shape-rendering="crispEdges" fill="#ffffff"/>
<rect x="0" y="52" width="64" height="1" shape-rendering="crispEdges" fill="#ffffff"/>
<rect x="0" y="53" width="64" height="1" shape-rendering="crispEdges" fill="#ffffff"/>
<rect x="0" y="54" width="64" height="1" shape-rendering="crispEdges" fill="#ffffff"/>
<rect x="0" y="55" width="64" height="1" shape-rendering="crispEdges" fill="#ffffff"/>
<rect x="0" y="56" width="64" height="1" shape-rendering="crispEdges" fill="#ffffff"/>
<rect x="0" y="57" width="64" height="1" shape-rendering="crispEdges" fill="#ffffff"/>
<rect x="0" y="58" width="64" height="1" shape-rendering="crispEdges" fill="#ffffff"/>
<rect x="0" y="59" width="64" height="1" shape-rendering="crispEdges" fill="#ffffff"/>
<rect x="0" y="60" width="64" height="1" shape-rendering="crispEdges" fill="#ffffff"/>
<rect x="0" y="61" width="64" height="1" shape-rendering="crispEdges" fill="#ffffff"/>
<rect x="0" y="62" width="64" height="1" shape-rendering="crispEdges" fill="#ffffff"/>
<rect x="0" y="63" width="64" height="1" shape-rendering="crispEdges" fill="#ffffff"/>
</svg>